<?xml version="1.0"?>
<svg xmlns="http://www.w3.org/2000/svg"
     height="512px"
     viewBox="0 -18 512.00016 512"
     width="512px" class="">
  <g>
    <path d="m432 0h-352c-44.113281 0-80 35.886719-80 80v280c0 44.113281 35.886719 80 80 80h214c11.046875 0 20-8.953125 20-20s-8.953125-20-20-20h-14.664062l-45.984376-59.65625 145.144532-184.617188 98.175781 117.121094c5.402344 6.445313 14.261719 8.824219 22.164063 5.949219 7.902343-2.875 13.164062-10.386719 13.164062-18.796875v-180c0-44.113281-35.886719-80-80-80zm40 205.007812-78.671875-93.855468c-3.871094-4.617188-9.609375-7.242188-15.640625-7.148438-6.023438.09375-11.683594 2.898438-15.410156 7.636719l-154.117188 196.023437-52.320312-67.875c-3.785156-4.910156-9.636719-7.789062-15.839844-7.789062-.003906 0-.007812 0-.011719 0-6.203125.003906-12.058593 2.886719-15.839843 7.804688l-44.015626 57.222656c-6.734374 8.753906-5.097656 21.3125 3.65625 28.046875 8.757813 6.734375 21.316407 5.09375 28.050782-3.660157l28.175781-36.632812 88.816406 115.21875h-148.832031c-22.054688 0-40-17.945312-40-40v-280c0-22.054688 17.945312-40 40-40h352c22.054688 0 40 17.945312 40 40zm0 0"
          class="active-path"
          fill="#CCCCCC"/>
    <path d="m140 72c-33.085938 0-60 26.917969-60 60 0 33.085938 26.914062 60 60 60s60-26.914062 60-60c0-33.082031-26.914062-60-60-60zm0 80c-11.027344 0-20-8.972656-20-20s8.972656-20 20-20 20 8.972656 20 20-8.972656 20-20 20zm0 0"
          class="active-path"
          fill="#CCCCCC"/>
    <path d="m477.628906 394.089844-24.738281 25.554687v-111.644531c0-11.046875-8.953125-20-20-20-11.042969 0-20 8.953125-20 20v112.253906l-25.84375-25.492187c-7.867187-7.757813-20.53125-7.671875-28.285156.195312-7.757813 7.863281-7.667969 20.523438.195312 28.28125l38.613281 38.085938c9.4375 9.464843 21.980469 14.675781 35.320313 14.675781 13.382813 0 25.960937-5.242188 35.410156-14.761719.058594-.058593.117188-.121093.175781-.179687l37.894532-39.148438c7.683594-7.9375 7.476562-20.597656-.460938-28.28125-7.933594-7.679687-20.597656-7.476562-28.28125.460938zm0 0"
          class="active-path"
          fill="#CCCCCC"/>
  </g>
</svg>
